<svg width="18" height="18" viewBox="0 0 18 18" xmlns="http://www.w3.org/2000/svg">
<path d="M17.6169 12.4729C17.5719 13.4159 17.4239 14.0589 17.2029 14.6169C16.9759 15.1999 16.6789 15.6919 16.1839 16.1819C15.6929 16.6759 15.2029 16.9759 14.6209 17.1999C14.0569 17.4209 13.4149 17.5669 12.4749 17.6119C11.5349 17.6559 11.2329 17.6649 8.83495 17.6649C6.43696 17.6649 6.13496 17.6559 5.19197 17.6119C4.25098 17.5669 3.60898 17.4209 3.04799 17.1999C2.46599 16.9759 1.97499 16.6769 1.48499 16.1819C0.991995 15.6919 0.689993 15.1999 0.462995 14.6169C0.244996 14.0589 0.0969992 13.4169 0.0559994 12.4729C0.0109997 11.5319 0 11.2299 0 8.82695C0 6.43196 0.0109997 6.13196 0.0559994 5.19197C0.0969992 4.24998 0.244996 3.60998 0.462995 3.04398C0.690993 2.46398 0.991995 1.97499 1.48499 1.47999C1.97499 0.993994 2.46599 0.687996 3.04799 0.464997C3.60898 0.242999 4.24998 0.0949976 5.19197 0.0519978C6.13396 0.0109981 6.43596 0 8.83495 0C11.2319 0 11.5339 0.0109981 12.4749 0.0519978C13.4149 0.0949976 14.0569 0.242999 14.6209 0.464997C15.2019 0.687996 15.6919 0.992994 16.1839 1.47999C16.6779 1.97499 16.9759 2.46398 17.2029 3.04398C17.4239 3.60998 17.5719 4.24998 17.6169 5.19197C17.6579 6.13096 17.6699 6.43196 17.6699 8.82695C17.6699 11.2289 17.6589 11.5309 17.6169 12.4729ZM16.0249 5.26197C15.9889 4.40097 15.8399 3.93198 15.7209 3.62298C15.5629 3.21098 15.3689 2.91698 15.0589 2.60398C14.7509 2.29499 14.4549 2.10599 14.0459 1.94499C13.7349 1.82599 13.2659 1.68299 12.4049 1.63999C11.4749 1.59699 11.1939 1.58899 8.83595 1.58899C6.47396 1.58899 6.19596 1.59699 5.26497 1.63999C4.40397 1.68299 3.93698 1.82599 3.62398 1.94499C3.21198 2.10599 2.91698 2.29599 2.60899 2.60398C2.29999 2.91698 2.10499 3.20998 1.94799 3.62298C1.82999 3.93198 1.68199 4.39997 1.64099 5.26197C1.60099 6.19296 1.59299 6.47196 1.59299 8.82595C1.59299 11.1909 1.60099 11.4669 1.64099 12.3989C1.68199 13.2639 1.82899 13.7269 1.94799 14.0399C2.10499 14.4539 2.30099 14.7459 2.60899 15.0589C2.91698 15.3679 3.21198 15.5539 3.62398 15.7179C3.93698 15.8399 4.40297 15.9839 5.26497 16.0239C6.19696 16.0629 6.47396 16.0719 8.83595 16.0719C11.1939 16.0719 11.4759 16.0629 12.4049 16.0239C13.2649 15.9839 13.7349 15.8399 14.0459 15.7179C14.4539 15.5539 14.7509 15.3669 15.0589 15.0589C15.3699 14.7459 15.5629 14.4549 15.7209 14.0399C15.8399 13.7269 15.9889 13.2649 16.0249 12.3989C16.0699 11.4659 16.0769 11.1909 16.0769 8.82595C16.0759 6.47196 16.0699 6.19196 16.0249 5.26197ZM13.5489 5.17597C12.9659 5.17597 12.4879 4.70097 12.4879 4.11397C12.4879 3.52998 12.9659 3.05798 13.5489 3.05798C14.1319 3.05798 14.6099 3.52998 14.6099 4.11397C14.6099 4.70097 14.1319 5.17597 13.5489 5.17597ZM8.83595 13.3669C6.33196 13.3669 4.29898 11.3399 4.29898 8.82595C4.29898 6.32596 6.33196 4.29698 8.83595 4.29698C11.3409 4.29698 13.3709 6.32596 13.3709 8.82595C13.3709 11.3399 11.3409 13.3669 8.83595 13.3669ZM8.83595 5.88697C7.21196 5.88697 5.88797 7.20696 5.88797 8.82595C5.88797 10.4589 7.21196 11.7749 8.83595 11.7749C10.4569 11.7749 11.7769 10.4589 11.7769 8.82595C11.7779 7.20696 10.4569 5.88697 8.83595 5.88697Z"/>
</svg>
