<svg width="130" height="67" viewBox="0 0 130 67" xmlns="http://www.w3.org/2000/svg">
<path d="M111.6 10.9998C108.4 9.29976 105 7.89976 101.6 6.59976C86.1001 1.39976 68.0001 -0.500241 50.8001 1.59976C34.9001 3.69976 19.5001 7.49976 7.40012 18.4998C1.60012 23.8998 -1.79988 31.9998 1.00012 39.6998C4.70012 49.1998 14.5001 55.4998 23.3001 59.0998C49.3001 69.5998 84.6001 69.1998 109.7 57.1998C118.3 52.8998 127.9 45.5998 129.1 35.2998C130.1 24.0998 120.3 15.7998 111.6 10.9998ZM53.6001 15.4998C55.8001 11.2998 59.6001 6.29976 65.0001 6.19976C76.3001 6.09976 87.2001 7.79976 97.5001 10.6998C98.1001 10.9998 98.9001 11.1998 99.2001 11.7998C99.5001 12.4998 98.9001 12.8998 98.5001 13.3998C90.0001 19.9998 80.3001 23.6998 70.4001 26.9998C65.4001 28.1998 60.3001 30.3998 54.7001 29.1998C53.4001 28.8998 52.2001 27.9998 51.5001 26.6998C50.1001 22.7998 52.0001 18.7998 53.6001 15.4998ZM19.1001 49.9998C17.8001 51.1998 16.5001 49.5998 15.3001 49.0998C9.30012 45.1998 3.90012 38.7998 5.50012 31.2998C8.00012 21.4998 18.1001 16.1998 26.6001 12.5998C31.6001 10.6998 36.8001 9.19976 42.3001 8.29976C42.9001 8.29976 43.7001 8.19976 43.9001 8.79976L43.7001 9.39976C32.9001 21.6998 25.8001 35.8998 19.1001 49.9998ZM74.2001 54.6998C71.7001 58.4998 67.7001 61.7998 62.8001 61.2998C51.9001 61.0998 41.1001 59.4998 31.2001 56.4998C30.7001 56.3998 30.3001 56.0998 30.1001 55.6998C29.9001 55.0998 30.2001 54.5998 30.6001 54.1998C39.7001 46.8998 50.4001 43.4998 61.1001 39.8998C65.1001 38.7998 69.3001 37.4998 73.8001 38.0998C75.6001 38.2998 77.5001 39.5998 78.1001 41.2998C79.1001 46.3998 76.4001 50.5998 74.2001 54.6998ZM123.6 36.3998C121.1 46.5998 110 51.9998 101.2 55.3998C96.4001 56.9998 91.6001 58.5998 86.3001 59.0998C86.0001 59.0998 85.4001 59.0998 85.4001 58.5998L85.5001 57.9998C93.0001 49.5998 98.6001 40.1998 103.6 30.5998C105.9 26.2998 108 21.8998 110 17.4998C110.3 17.1998 110.6 16.9998 110.9 16.8998C112.7 17.1998 114 18.5998 115.5 19.5998C120.6 23.7998 125.2 29.4998 123.6 36.3998Z"/>
</svg>
