<svg width="203" height="26" viewBox="0 0 203 26" xmlns="http://www.w3.org/2000/svg">
<path d="M188.931 6.50796H180.64C179.258 6.58572 178.863 6.93561 178.863 8.6073V13.1947H188.931V6.50796ZM193.353 2.8147V22.7583H188.931V17.0046H178.863V22.7583H174.441V7.12999C174.441 4.36976 175.586 2.8147 178.863 2.8147H193.353ZM170.058 7.12999V17.9377C170.058 21.3588 168.084 22.7972 165.636 22.7972H151.737V2.85357H165.636C169.426 2.8147 170.058 5.18616 170.058 7.12999ZM165.636 8.33516C165.636 7.24662 164.964 6.46909 163.78 6.46909H156.199V18.9484H163.78C165.517 18.8707 165.636 17.8599 165.636 17.0435V8.33516ZM61.9509 2.8147H66.3731V10.6678H76.2441V2.8147H80.6663V22.7583H76.2046V14.6332H66.3336V22.7583H61.9114L61.9509 2.8147ZM88.1682 2.8147L93.696 10.9788L99.1447 2.8147H104.515L95.9071 15.5662V22.7583H91.4849V15.5662L82.8379 2.8147H88.1682ZM129.232 2.8147H143.446C145.459 2.8147 147.434 3.08683 147.355 7.12999V22.7583H142.932V8.52954C142.932 6.81898 142.735 6.43021 141.353 6.43021H133.614V22.7195H129.192V2.8147H129.232ZM202.158 2.8147V22.7583H197.736V2.8147H202.158ZM106.726 22.7972H120.94C123.743 22.7972 124.928 21.9808 124.849 17.9765V2.8147H120.427V17.0824C120.427 18.7929 120.229 18.9873 118.847 18.9873H111.108V2.8147H106.686V22.7972H106.726Z"/>
<path d="M44.0631 3.98095C42.7996 3.32005 41.4571 2.77578 40.1147 2.27039C33.9947 0.248808 26.8481 -0.489846 20.0568 0.32656C13.7789 1.14297 7.69836 2.62027 2.9208 6.89669C0.630729 8.99602 -0.711725 12.145 0.393826 15.1385C1.85473 18.8318 5.72416 21.281 9.19875 22.6805C19.4646 26.7626 33.4024 26.6071 43.3129 21.9419C46.7085 20.2702 50.499 17.4322 50.9728 13.4279C51.3676 9.07377 47.4982 5.84702 44.0631 3.98095ZM21.1624 5.73039C22.031 4.09758 23.5314 2.15376 25.6635 2.11488C30.1252 2.076 34.429 2.7369 38.4958 3.86432C38.7327 3.98095 39.0486 4.0587 39.1671 4.29196C39.2855 4.5641 39.0486 4.7196 38.8907 4.91399C35.5345 7.47984 31.7046 8.91827 27.7957 10.2012C25.8215 10.6677 23.8078 11.523 21.5967 11.0565C21.0834 10.9398 20.6096 10.59 20.3332 10.0846C19.7804 8.56838 20.5306 7.01332 21.1624 5.73039ZM7.54042 19.1428C7.02713 19.6093 6.51384 18.9873 6.04003 18.7929C3.67099 17.2767 1.53886 14.7886 2.1706 11.8729C3.1577 8.06298 7.14558 6.00253 10.5017 4.60298C12.4759 3.86432 14.5291 3.28117 16.7007 2.93129C16.9376 2.93129 17.2535 2.89241 17.3324 3.12567L17.2535 3.35893C12.9892 8.14074 10.1858 13.6612 7.54042 19.1428ZM29.2961 20.97C28.309 22.4473 26.7296 23.7302 24.7949 23.5358C20.4912 23.4581 16.2269 22.8361 12.318 21.6698C12.1206 21.6309 11.9626 21.5143 11.8837 21.3587C11.8047 21.1255 11.9231 20.9311 12.0811 20.7756C15.6741 17.9376 19.8989 16.6158 24.1237 15.2163C25.703 14.7886 27.3614 14.2832 29.1381 14.5165C29.8489 14.5942 30.599 15.0996 30.8359 15.7605C31.2308 17.7432 30.1647 19.376 29.2961 20.97ZM48.8011 13.8556C47.814 17.821 43.4313 19.9203 39.9567 21.2421C38.0615 21.8641 36.1663 22.4862 34.0736 22.6805C33.9552 22.6805 33.7183 22.6805 33.7183 22.4862L33.7578 22.2529C36.7191 18.9873 38.9302 15.3329 40.9044 11.6007C41.8125 9.92906 42.6416 8.21849 43.4313 6.50792C43.5498 6.39129 43.6682 6.31354 43.7867 6.27466C44.4974 6.39129 45.0107 6.93557 45.6029 7.32433C47.6166 8.95714 49.4329 11.1731 48.8011 13.8556Z"/>
</svg>
