<svg width="70" height="83" viewBox="0 0 70 83" fill="none" xmlns="http://www.w3.org/2000/svg">
<g filter="url(#filter0_d)">
<circle cx="35" cy="31" r="30" fill="#013368"/>
<path d="M15.1785 53.5L34.9998 39.9074L54.8213 53.5L34.9999 70.6429L15.1785 53.5Z" fill="#013368"/>
<circle cx="35.0001" cy="31.0001" r="21.4286" fill="white"/>
<path d="M45.1393 25.666C44.4492 25.3064 43.7159 25.0103 42.9826 24.7353C39.6398 23.6354 35.7363 23.2335 32.0268 23.6777C28.5977 24.1219 25.2765 24.9257 22.6669 27.2524C21.416 28.3946 20.6828 30.1079 21.2866 31.7366C22.0846 33.7461 24.1981 35.0787 26.096 35.8401C31.7033 38.0611 39.3163 37.9765 44.7295 35.4383C46.5842 34.5287 48.6546 32.9846 48.9134 30.8059C49.1291 28.4369 47.0156 26.6813 45.1393 25.666ZM32.6307 26.6178C33.1051 25.7294 33.9247 24.6718 35.0893 24.6507C37.5263 24.6295 39.877 24.9891 42.0984 25.6025C42.2278 25.666 42.4003 25.7083 42.465 25.8352C42.5297 25.9833 42.4003 26.0679 42.3141 26.1736C40.4809 27.5697 38.3889 28.3523 36.2539 29.0503C35.1755 29.3041 34.0756 29.7695 32.8679 29.5157C32.5875 29.4522 32.3287 29.2618 32.1778 28.9869C31.8758 28.1619 32.2856 27.3158 32.6307 26.6178ZM25.1902 33.9153C24.9098 34.1691 24.6295 33.8307 24.3707 33.7249C23.0767 32.9 21.9121 31.5463 22.2571 29.9599C22.7963 27.8869 24.9745 26.7659 26.8077 26.0044C27.886 25.6025 29.0075 25.2852 30.1936 25.0949C30.323 25.0949 30.4956 25.0737 30.5387 25.2006L30.4956 25.3275C28.1664 27.9293 26.6352 30.9329 25.1902 33.9153ZM37.0734 34.9094C36.5342 35.7132 35.6716 36.4113 34.6148 36.3055C32.264 36.2632 29.9348 35.9248 27.7998 35.2902C27.6919 35.269 27.6057 35.2056 27.5625 35.121C27.5194 34.9941 27.5841 34.8883 27.6704 34.8037C29.6329 33.2596 31.9405 32.5404 34.2482 31.7789C35.1108 31.5463 36.0166 31.2713 36.9871 31.3982C37.3753 31.4405 37.7851 31.7155 37.9145 32.0751C38.1301 33.1538 37.5478 34.0422 37.0734 34.9094ZM47.7273 31.0386C47.1881 33.1961 44.7942 34.3383 42.8964 35.0575C41.8612 35.3959 40.826 35.7344 39.6829 35.8401C39.6182 35.8401 39.4888 35.8401 39.4888 35.7344L39.5104 35.6075C41.1279 33.8307 42.3356 31.8424 43.414 29.8118C43.91 28.9022 44.3629 27.9716 44.7942 27.0409C44.8589 26.9774 44.9236 26.9351 44.9883 26.9139C45.3765 26.9774 45.6569 27.2735 45.9804 27.4851C47.0803 28.3734 48.0723 29.5791 47.7273 31.0386Z" fill="#013368"/>
</g>
<defs>
<filter id="filter0_d" x="0" y="0" width="70" height="82.3216" filterUnits="userSpaceOnUse" color-interpolation-filters="sRGB">
<feFlood flood-opacity="0" result="BackgroundImageFix"/>
<feColorMatrix in="SourceAlpha" type="matrix" values="0 0 0 0 0 0 0 0 0 0 0 0 0 0 0 0 0 0 127 0"/>
<feOffset dy="4"/>
<feGaussianBlur stdDeviation="2.5"/>
<feColorMatrix type="matrix" values="0 0 0 0 0.156863 0 0 0 0 0.156863 0 0 0 0 0.156863 0 0 0 0.25 0"/>
<feBlend mode="normal" in2="BackgroundImageFix" result="effect1_dropShadow"/>
<feBlend mode="normal" in="SourceGraphic" in2="effect1_dropShadow" result="shape"/>
</filter>
</defs>
</svg>
