<svg width="19" height="11" viewBox="0 0 19 11" xmlns="http://www.w3.org/2000/svg">
<path d="M9.55492 10.8599H10.6619C10.6619 10.8599 10.9939 10.8199 11.1639 10.6349C11.3229 10.4629 11.3179 10.1479 11.3179 10.1479C11.3179 10.1479 11.2969 8.65794 11.9839 8.43894C12.6639 8.22094 13.5329 9.87693 14.4599 10.5159C15.1549 10.9959 15.6829 10.8929 15.6829 10.8929L18.1539 10.8599C18.1539 10.8599 19.4439 10.7759 18.8339 9.75593C18.7839 9.67193 18.4749 9.00193 16.9979 7.62094C15.4509 6.17695 15.6559 6.40895 17.5219 3.91196C18.6539 2.39397 19.1129 1.46698 18.9679 1.06698C18.8329 0.688983 17.9979 0.787983 17.9979 0.787983L15.2209 0.806984C15.2209 0.806984 15.0119 0.778983 14.8599 0.870982C14.7129 0.956982 14.6139 1.16798 14.6139 1.16798C14.6139 1.16798 14.1769 2.34497 13.5879 3.34497C12.3489 5.45795 11.8589 5.56795 11.6529 5.44195C11.1819 5.13396 11.3009 4.21096 11.3009 3.55497C11.3009 1.50998 11.6079 0.656982 10.6989 0.435984C10.3959 0.364984 10.1739 0.314988 9.40292 0.304988C8.40893 0.294988 7.57193 0.308986 7.09594 0.543985C6.77894 0.700984 6.53494 1.04498 6.68394 1.06398C6.86894 1.09198 7.28093 1.17798 7.50593 1.47698C7.78893 1.86998 7.77993 2.74497 7.77993 2.74497C7.77993 2.74497 7.94193 5.14796 7.39493 5.44995C7.01694 5.65795 6.50494 5.23796 5.40495 3.32497C4.84095 2.34197 4.41295 1.25898 4.41295 1.25898C4.41295 1.25898 4.32995 1.05198 4.18395 0.944983C4.00396 0.811984 3.75396 0.773983 3.75396 0.773983L1.11797 0.789982C1.11797 0.789982 0.719975 0.800984 0.571976 0.972983C0.444977 1.12698 0.561976 1.44598 0.561976 1.44598C0.561976 1.44598 2.62796 6.30795 4.97095 8.75894C7.12094 11.0009 9.55492 10.8599 9.55492 10.8599Z"/>
</svg>
